<svg id="Layer_1" data-name="Layer 1" xmlns="http://www.w3.org/2000/svg" width="1200" height="1200" viewBox="0 0 1200 1200">
  <defs>
    <style>
      .cls-1 {
        opacity: 0;
      }

      .cls-2 {
        fill: #fff;
      }
    </style>
  </defs>
  <rect class="cls-1" width="1200" height="1200"/>
  <g>
    <path class="cls-2" d="M424.07334,322.80545H775.92662A51.44936,51.44936,0,0,1,827.376,374.25481V726.10808a51.44932,51.44932,0,0,1-51.44932,51.44932H424.07338A51.44936,51.44936,0,0,1,372.624,726.108V374.25477a51.44932,51.44932,0,0,1,51.44932-51.44932Z" transform="translate(-213.30109 585.40835) rotate(-44.99999)"/>
    <path class="cls-2" d="M600,100c-248.62838,0-450.18146,201.55308-450.18146,450.18146,0,198.00323,127.83092,366.1484,305.46638,426.4145L563.6198,1084.93085a51.44943,51.44943,0,0,0,72.7604,0L744.715,976.596c177.63554-60.266,305.46646-228.41127,305.46646-426.4145C1050.18146,301.55308,848.62838,100,600,100Zm0,836.05129c-213.11,0-385.86983-172.75981-385.86983-385.86983S386.89,164.31164,600,164.31164s385.86983,172.7598,385.86983,385.86982S813.11,936.05129,600,936.05129Z"/>
  </g>
</svg>
