<svg xmlns="http://www.w3.org/2000/svg" width="250" height="250" viewBox="0 0 250 250">
  <defs>
    <style>
      .cls-1 {
        fill: #fff;
        fill-rule: evenodd;
      }
    </style>
  </defs>
  <path class="cls-1" d="M7,5H38l76,76L83,112,7,37V5ZM243,5V37L100,179,69,149,212,5h31ZM167,135l7,6.5,7,6.5-31,31-14-13,15.5-15.5ZM30,145H44c12.043,10.7,23.494,21.573,34.793,33.049C87.491,186.881,95.767,195.731,104,205v14H89L30,159V145Zm190,0v15c-20,19.665-38,38.335-58,58H147V204c20-19.665,39-39.335,59-59h14ZM41,193l14,14L18,245,4,231Zm167,0,38,38-13,14-38-38Z"/>
</svg>
