<svg id="Layer_1" data-name="Layer 1" xmlns="http://www.w3.org/2000/svg" width="1111.83171" height="824.99999" viewBox="0 0 1111.83171 824.99999">
  <defs>
    <style>
      .cls-1 {
        fill: none;
      }
      .cls-2{
        fill: currentColor;
      }
    </style>
  </defs>
  <g>
    <path class="cls-2" d="M1143.31732,566.62662,776.78956,200.09855a43.014,43.014,0,0,0-60.83091-.00011L444.86986,471.187h274.376L730.602,366.03684a5.52917,5.52917,0,0,1,5.55442-4.95875,5.43222,5.43222,0,0,1,4.20866,1.9857L917.577,573.97605l.00011.00011a23.29124,23.29124,0,0,1-2.84949,32.81533L694.19614,792.08581a5.44466,5.44466,0,0,1-3.53546,1.31552,5.55454,5.55454,0,0,1-5.54829-6.15861l9.19619-85.15141H412.23223L710.04217,999.90146a43.01386,43.01386,0,0,0,60.83092,0l372.44423-372.44392A43.01386,43.01386,0,0,0,1143.31732,566.62662Z" transform="translate(-44.08414 -187.5)"/>
    <g>
      <path class="cls-1" d="M188.57543,633.37329a43.014,43.014,0,0,1,.0001-60.83092L454.417,306.70112H158.16v585.703H447.60607Z" transform="translate(-44.08414 -187.5)"/>
      <path class="cls-1" d="M244.76205,633.37329,503.7927,892.40414h11.91858v-585.703h-5.10767L244.76216,572.54237A43.014,43.014,0,0,0,244.76205,633.37329Z" transform="translate(-44.08414 -187.5)"/>
      <path class="cls-2" d="M188.57543,633.37329,447.60607,892.40414H503.7927L244.76205,633.37329a43.014,43.014,0,0,1,.00011-60.83092L510.60361,306.70112H454.417L188.57553,572.54237A43.014,43.014,0,0,0,188.57543,633.37329Z" transform="translate(-44.08414 -187.5)"/>
    </g>
    <g>
      <path class="cls-1" d="M76.20217,633.37329a43.014,43.014,0,0,1,.00011-60.83092l218.168-218.16774H44.08414v490.356H287.55932Z" transform="translate(-44.08414 -187.5)"/>
      <path class="cls-1" d="M117.06517,633.37329,328.42232,844.73064h83.42883v-490.356H335.23323L117.06528,572.54237A43.014,43.014,0,0,0,117.06517,633.37329Z" transform="translate(-44.08414 -187.5)"/>
      <path class="cls-2" d="M76.20217,633.37329,287.55932,844.73064h40.863L117.06517,633.37329a43.014,43.014,0,0,1,.00011-60.83092l218.168-218.16774h-40.863L76.20228,572.54237A43.014,43.014,0,0,0,76.20217,633.37329Z" transform="translate(-44.08414 -187.5)"/>
    </g>
  </g>
</svg>
