<svg xmlns="http://www.w3.org/2000/svg" width="1200" height="1200" viewBox="0 0 1200 1200">
  <defs>
    <style>
      .cls-1 {
        fill: #fff;
        fill-rule: evenodd;
      }
    </style>
  </defs>
  <path class="cls-1" d="M808.722,553.453c-0.21-18.183-.387-38.27-0.379-54.156,0.009-16.209.791-35.483-11.634-41.94a17.548,17.548,0,0,0-21.022,3C714.622,521.421,656.56,582.483,595.5,643.544c-5.32,4.245-5.047,9.884,0,15.015l183.2,186.186c4.476,2.135,6.711,5.253,15.016,3,5.489-1.487,9.984-4.243,12.013-12.012l3-87.087H964.888L637.54,1078.98c-12.473,13.76-25.631,21.44-39.042,21.02-17.119-.54-29.4-14.12-33.035-18.02C532.654,1046.76,267.777,783.875,130,646.547H391.278c0.16,18.208.319,39.466,0.267,54.229-0.053,15.194.039,36.1,11.746,41.867,4.179,2.06,9.286,1.913,15.016,0,36.172-32.006,70.639-64.314,104.912-98.339,29.03-28.819,56.693-57.65,84.289-87.848a13.539,13.539,0,0,0,3-6.006c1.028-5.638-4.521-10.573-6.006-12.012-10.057-9.735-122.717-122.7-183.195-183.183-8.918-3.875-18.249-2.365-24.026,3a19.987,19.987,0,0,0-6.006,12.012c2.092,26.946,0,54.054,0,81.081H232.109L571.47,109.009c7.8-5.847,9.153-9.009,27.028-9.009s19.233,3.162,27.029,9.009L847.764,331.231,1070,553.453H808.722Z"/>
</svg>
