<svg xmlns="http://www.w3.org/2000/svg" width="250" height="250" viewBox="0 0 250 250">
  <defs>
    <style>
      .cls-1 {
        fill: #fff;
        fill-rule: evenodd;
      }
    </style>
  </defs>
  <path class="cls-1" d="M30,6V142a34.025,34.025,0,0,0,5,21,33.273,33.273,0,0,0,5,6c9.136,8.551,56.73,50.83,84,75h2l84-75a31.432,31.432,0,0,0,5-6,34.026,34.026,0,0,0,5-21V6H30ZM48,25V133a34.025,34.025,0,0,0,5,21,33.273,33.273,0,0,0,5,6c9.136,8.551,38.73,33.83,66,58h2c28-25,37-33,65-58a31.432,31.432,0,0,0,5-6,34.026,34.026,0,0,0,5-21V25H48ZM77,152c9.136,8.551,19.73,15.83,47,40h2l46-40m0,0a31.432,31.432,0,0,0,5-6c5.329-8.323,5.07-17.634,5-21-0.228-10.956.161-52.879,0-80H67l0,80c-0.1,3.013-.36,12.628,5,21a33.273,33.273,0,0,0,5,6"/>
</svg>
