<svg xmlns="http://www.w3.org/2000/svg" width="1200" height="1200" viewBox="0 0 1200 1200">
  <defs>
    <style>
      .cls-1 {
        fill: #fff;
        fill-rule: evenodd;
      }
    </style>
  </defs>
  <path id="Shape_2_copy" data-name="Shape 2 copy" class="cls-1" d="M1030.41,719c-68.571-65.522-163.065-71.615-231.1-51-54.517,16.518-84.889,42.285-102.683,67.332A168.042,168.042,0,0,0,673.251,782c-2.41,3.576-7.376,5.6-12,6-3.23.279-10.43-.007-15.007-6a16.131,16.131,0,0,1-3-12H538.192a234.634,234.634,0,0,0-36.016-57H646.239c0.087-82.449.518-416.764,0-423a14.762,14.762,0,0,1,.6-5.032,15.955,15.955,0,0,1,2.4-3.968c2.063-2.8,3.653-4.4,9-6H820.315a44.322,44.322,0,0,1,14.226,2.5c7.426,2.9,13.666,8.221,18.789,15.5q15.067,24,30.013,48c13.077,21,26.042,41.936,39.017,63h117.05c19.59-.107,25.89,8.842,36.02,18,11.07,10.013,17.8,19.366,21.01,28.64a56.038,56.038,0,0,1,3,16.36c1.06,27.035.39,209.622,0,300-0.53,13.395-11.49,22.242-21.01,21-6.57-.857-12.78-6.6-15.01-15C1055.56,752.91,1045.74,733.653,1030.41,719Zm-441.2-408V659H163.028V341c0.272-5.732,5.112-13.6,9.011-18.013,6.468-7.325,13.689-11.778,24-11.987H589.214Zm225.1,0H688.257v93h183.08v-6ZM100,770V716h90.039c-11.6,10.473-17.311,16.827-24.01,30-3.314,6.517-7.731,16.723-9,24H100ZM376.121,926m408.792-86.9c-0.023,31.84,46.69,58.61,86.423,57.927,38.127-.656,82.8-26.8,82.822-57.927,0.023-31.84-46.69-58.61-86.423-57.926C829.607,781.83,784.935,807.979,784.913,839.1Zm86.423,86.89c67.8-.329,144.274-41.826,144.034-108.612-0.21-59.873-75.33-101.5-147.635-101.372C803.107,716.126,727.466,751.8,727.3,821,727.127,891.229,805.064,926.313,871.336,925.991ZM262.684,839.1c-0.023,31.84,46.691,58.61,86.423,57.927,38.128-.656,82.8-26.8,82.822-57.927,0.023-31.84-46.69-58.61-86.423-57.926C307.379,781.83,262.707,807.979,262.684,839.1Zm86.423,86.89c67.8-.329,144.275-41.826,144.039-108.612-0.212-59.873-75.334-101.5-147.64-101.372C280.879,716.126,205.237,751.8,205.069,821,204.9,891.229,282.836,926.313,349.107,925.991Z"/>
</svg>
