<svg id="Layer_1" data-name="Layer 1" xmlns="http://www.w3.org/2000/svg" width="675.16583" height="458.58387" viewBox="0 0 675.16583 458.58387">
  <defs>
    <style>
      .cls-1 {
        fill: #fff;
      }
    </style>
  </defs>
  <path class="cls-1" d="M373.19219,544.62117,314.38606,603.4273a32.5357,32.5357,0,0,1-46.0125,0L88.24456,423.29805a32.53554,32.53554,0,0,1,0-46.01238l180.12912-180.129a32.53571,32.53571,0,0,1,46.01251,0l58.806,58.806L385.358,243.79689,327.53871,185.9775a51.13612,51.13612,0,0,0-72.31755,0L77.06539,364.133a51.13611,51.13611,0,0,0,0,72.31754L255.221,614.60646a51.13634,51.13634,0,0,0,72.31754,0L385.3581,556.787Z" transform="translate(-62.08789 -171)"/>
  <g>
    <polygon class="cls-1" points="188.809 62.24 188.809 43.633 43.633 188.809 62.239 188.809 188.809 62.24"/>
    <polygon class="cls-1" points="188.809 396.344 62.24 269.775 43.633 269.775 188.809 414.951 188.809 396.344"/>
  </g>
  <path class="cls-1" d="M610.4889,385.77023,506.4072,261.89533a3.25828,3.25828,0,0,0-5.734,1.74616l-6.66984,61.75769H237.206L222.55947,461.01587H479.357l-5.4013,50.01184a3.2582,3.2582,0,0,0,5.33533,2.84445l129.5244-108.82847A13.67966,13.67966,0,0,0,610.4889,385.77023Z" transform="translate(-62.08789 -171)"/>
  <g>
    <path class="cls-1" d="M477.21447,514.6448a3.19768,3.19768,0,0,0,2.07651-.77264l129.5244-108.82859a13.67964,13.67964,0,0,0,1.67352-19.27346L506.40732,261.89533a3.19072,3.19072,0,0,0-2.47185-1.16625,3.24739,3.24739,0,0,0-3.26228,2.91241l-6.66984,61.75769H332.3811L293.64726,364.133a51.13611,51.13611,0,0,0,0,72.31754l24.5653,24.56531H479.357l-5.40118,50.01184A3.2622,3.2622,0,0,0,477.21447,514.6448Z" transform="translate(-62.08789 -171)"/>
    <path class="cls-1" d="M722.27622,364.13327,544.12057,185.9775a51.13611,51.13611,0,0,0-72.31754,0L352.62252,305.15789H475.83041l4.71848-43.68953a23.49692,23.49692,0,0,1,41.35568-12.5941l104.08169,123.875a33.95945,33.95945,0,0,1-4.14981,47.79152L492.31205,529.36928a23.49567,23.49567,0,0,1-38.48058-20.51507l2.98048-27.59705H338.45374l133.34917,133.3493a51.13634,51.13634,0,0,0,72.31754,0L722.27622,436.45081A51.13611,51.13611,0,0,0,722.27622,364.13327Z" transform="translate(-62.08789 -171)"/>
  </g>
</svg>
