<svg xmlns="http://www.w3.org/2000/svg" width="1200" height="1200" viewBox="0 0 1200 1200">
  <defs>
    <style>
      .cls-1 {
        fill: #fff;
        fill-rule: evenodd;
      }
    </style>
  </defs>
  <path class="cls-1" d="M490.382,794.085c-13.49,7.093-27.407,10.27-42.042,15L388.28,923.1a19.583,19.583,0,0,1-12.012,6,16.745,16.745,0,0,1-3,0,19.583,19.583,0,0,1-12.012-6L298.189,809.087C175.566,778.641,99.776,659.816,99.99,545.05,100.267,396.91,226.719,274.2,373.264,275.013c123.014,0.685,208.379,76.554,247.692,159.192m-253.7-57.178h15.016L547.439,542.05v12C491.383,609.059,438.33,664.067,382.274,719.075H367.258L205.1,554.052v-12C259.15,488.042,313.2,431.034,367.258,377.027ZM511.4,1004.11Q657.05,605.061,802.7,206c3.5-10.436,1.25-21.794-12.012-27-16.066-6.313-26.5,2.636-33.033,21Q613.506,593.057,469.361,986.112c-7.886,15.078-.015,32.128,12.012,36.008C492.207,1025.61,506.838,1018.55,511.4,1004.11ZM838.732,803.086c-0.02,26.388,38.937,48.573,72.072,48.007,31.8-.544,69.05-22.214,69.069-48.007,0.019-26.387-38.937-48.573-72.072-48.006C876.005,755.623,838.75,777.293,838.732,803.086ZM910.8,875.1c56.543-.273,120.316-34.663,120.116-90.012-0.17-49.62-62.82-84.122-123.119-84.012-53.9.1-116.977,29.661-117.118,87.012C790.541,846.288,855.537,875.363,910.8,875.1ZM658.551,746.078v-6L769.662,440.036H913.807l-51.051-78.011H799.692l9.009-27h69.07c2.816,0.036,4.156,1.72,6.006,3a23.821,23.821,0,0,1,6.006,6c21.021,33,42.042,63.009,63.063,96.014h99.1c13.25-.244,25.44,12.3,33.03,21a60.414,60.414,0,0,1,15.01,39V746.078c-0.02,7.946-7.91,12.17-15.01,12-4.75-.112-9.29-1.805-12.01-6-22.73-60.494-95.421-102.574-165.169-102.014-68.661.551-140.707,40.8-162.163,101.878a9.813,9.813,0,0,1-3.137,4.164c-2.643,1.949-6.188,2.262-8.875,1.973-6.585-.707-11.914-5.884-15.015-12h-60.06Z"/>
</svg>
