<svg id="Layer_1" data-name="Layer 1" xmlns="http://www.w3.org/2000/svg" width="1167.12574" height="1021.25327" viewBox="0 0 1167.12574 1021.25327">
  <defs>
    <style>
      .cls-1 {
        fill: #fff;
      }
    </style>
  </defs>
  <g>
    <path class="cls-1" d="M163.19683,382.71381H891.5775V527.544c98.6705-74.03339,194.60563-146.01444,291.714-218.87575-97.70764-73.30166-193.462-145.138-292.30966-219.29491V235.67048c-8.27208,0-14.3337-.00006-20.39525,0q-351.90529.005-703.81043.08425c-86.28244.08082-149.86374,64.06481-150.24172,150.414-.1859,42.46379-.05718,84.9291-.00715,127.39361.005,4.24618.4534,8.49184.68687,12.57778H163.19683Zm145.215,582.01629h19.7169q351.3354-.002,702.67079-.05789c90.08025-.06246,152.53988-62.98076,152.71808-153.195q.12206-61.74213-.01795-123.48459c-.00634-4.60819-.4761-9.21574-.74144-14.01235H1037.138V818.12477H308.50021V673.14622C209.932,747.0787,113.975,819.05254,16.81354,891.92976c97.38321,73.03679,193.158,144.86727,291.59829,218.69687Z" transform="translate(-16.43713 -89.37337)"/>
    <path d="M163.19683,382.71381V526.14012H17.21412c-.23347-4.08594-.68187-8.3316-.68687-12.57778-.05-42.46451-.17875-84.92982.00715-127.39361.378-86.34917,63.95928-150.33316,150.24172-150.414q351.905-.32971,703.81043-.08425c6.06155-.00008,12.12317,0,20.39525,0V89.37337c98.84766,74.15694,194.602,145.99325,292.30966,219.29491C1086.18313,381.52959,990.248,453.51064,891.5775,527.544V382.71381Z" transform="translate(-16.43713 -89.37337)"/>
    <path d="M308.41183,964.7301v145.89653C209.97151,1036.797,114.19675,964.96655,16.81354,891.92976,113.975,819.05254,209.932,747.0787,308.50021,673.14622V818.12477H1037.138V673.98026h145.62018c.26534,4.79661.7351,9.40416.74144,14.01235q.0856,61.74225.01795,123.48459c-.1782,90.21425-62.63783,153.13255-152.71808,153.195q-351.33534.2433-702.67079.05789Z" transform="translate(-16.43713 -89.37337)"/>
  </g>
</svg>
