<svg id="Layer_1" data-name="Layer 1" xmlns="http://www.w3.org/2000/svg" width="990" height="974" viewBox="0 0 990 974">
  <defs>
    <style>
      .cls-1 {
        fill: #fff;
      }
    </style>
  </defs>
  <g>
    <path class="cls-1" d="M834.2478,890.49585c-194.92634,211.575-400.90436,123.89657-540.46624-93.63922a387.28418,387.28418,0,0,0,65.25189,2.82489c119.16351,134.34979,362.77734,134.33514,481.93237.00067a386.2786,386.2786,0,0,0,65.23706-2.80109C884.74241,830.39354,859.53137,863.29167,834.2478,890.49585Z" transform="translate(-105 -113)"/>
    <path class="cls-1" d="M801.301,796.10638c-105.2522,99.79749-297.35212,99.79028-402.59992.00189A386.81287,386.81287,0,0,0,600,702.95825,386.55,386.55,0,0,0,801.301,796.10638Z" transform="translate(-105 -113)"/>
    <path class="cls-1" d="M632.49805,576.40283q4.58422-8.03173,8.64477-16.34961,13.025,1.938,25.72486,5.05859a356.13082,356.13082,0,0,1-66.83252,96.424l-.02613-.02655-.009.00953-.009-.00953C531.54626,733.10382,432.04327,772.5346,333.40552,769.8518c.03113.04084.06311.08106.09424.12189a342.295,342.295,0,0,1-60.21778-6.76324c-.02606-.04529-.05316-.08966-.07922-.135q-8.724-1.74042-17.2945-3.89215a358.03617,358.03617,0,0,1,78.6778-142.17359l-.00366-.00427A358.02567,358.02567,0,0,1,512.40967,509.81933l-.00147-.00464.01136-.00268c-31.75257-108.70447-5.64637-233.4043,65.4226-321.532.0719-.00171.14246-.00464.21436-.00635Q588.45856,175.37317,600,163.47912q11.53234,11.87678,21.94348,24.79456c.05042.00122.1.00329.15051.00439,64.82679,80.46118,92.7627,190.70581,72.40967,292.34351q-12.8595-3.22485-25.91968-5.54956c15.56665-89.17322-9.9729-184.24146-68.584-253.29175-65.36969,76.90527-88.98608,185.38318-62.14453,282.61353,139.88769-25.58216,277.83716,37.52429,355.22925,147.25738-.00745.02551-.01416.05133-.02149.07684a357.62185,357.62185,0,0,1,20.59448,33.12427c.02515-.06714.04834-.13525.07349-.20239a345.235,345.235,0,0,1,24.99634,56.97589c-.01856.03442-.03662.06921-.055.10364q2.924,8.63113,5.41931,17.45392a359.84287,359.84287,0,0,1-77.56836,10.76025c.02344-.03076.0476-.061.071-.0918a360.57617,360.57617,0,0,1-38.03149-.9292l-.00122.00141c-75.78931-6.1062-149.55689-36.36041-206.76673-86.79413q9.173-9.466,17.69568-19.53717v.00006l.01294-.01514c68.88526,58.33136,164.66284,83.72028,253.41822,67.8545-49.13306-138.20581-202.189-226.21979-346.344-198.86622a311.60793,311.60793,0,0,0,34.73,66.97315q-8.18481,10.20932-17.24805,19.60156A356.3536,356.3536,0,0,1,521.28455,537c-64.65229,16.65551-123.34314,54.87152-165.04334,106.96972l-.00488-.00586a313.14623,313.14623,0,0,0-49.15845,86.46827c99.82141,17.62945,204.55151-15.73639,275.54175-88.15186l-.00391-.00488q9.0716-9.16974,17.3761-19.06647v.00006l.00818.00879A315.0529,315.0529,0,0,0,632.50244,576.405" transform="translate(-105 -113)"/>
    <path class="cls-1" d="M708.39307,281.84533C837.86632,329.234,924.763,470.66674,901.50244,613.21289,855.38623,556.27758,793.42651,512.21154,723.41235,489.0874,737.5061,420.22461,731.99,347.88232,708.39307,281.84533Z" transform="translate(-105 -113)"/>
    <path class="cls-1" d="M476.58765,489.0874c-70.01923,23.10944-131.97791,67.18091-178.09143,124.11713-23.24949-142.5654,63.63654-283.96045,193.11761-331.362C468.01648,347.8789,462.458,420.22912,476.58765,489.0874Z" transform="translate(-105 -113)"/>
    <path class="cls-1" d="M180,477.999c-.32383-197.00553,182.23522-278.07126,359.0354-287.93933a384.713,384.713,0,0,0-32.11389,55.08288C340.68066,289.87964,229.81842,473.76782,274.46716,646.24835a382.71588,382.71588,0,0,0-31.49725,59.17493C210.29078,638.928,178.92,539.13721,180,477.999Z" transform="translate(-105 -113)"/>
    <path class="cls-1" d="M957.02881,705.42614a382.68193,382.68193,0,0,0-31.49732-59.17187c44.646-172.50671-66.20459-356.35413-232.45117-401.11108a385.40371,385.40371,0,0,0-32.123-55.084c176.83851,9.86174,359.3786,90.97656,359.04173,287.94123C1021.06638,539.13819,989.72035,638.92439,957.02881,705.42614Z" transform="translate(-105 -113)"/>
    <path class="cls-1" d="M1064.33691,334.60254c-21.21679-45.54-52.92871-85.17578-94.25488-117.80664-42.41894-33.49317-94.71973-59.30078-155.44922-76.707C751.9209,122.11426,679.708,113,600,113s-151.9209,9.11426-214.63281,27.08887c-60.72949,17.40625-113.03028,43.21386-155.44922,76.708-41.32617,32.62988-73.03809,72.26562-94.25488,117.80566C115.31641,378.27344,105,426.51953,105,478c0,63.084,19.75,131.6582,36.31738,178.07617A893.11187,893.11187,0,0,0,240.38965,852.169,740.3311,740.3311,0,0,0,310.752,941.4873c26.72266,28.8252,54.84571,53.85352,83.58692,74.39161C460.37793,1063.07129,529.57227,1087,600,1087s139.62207-23.92871,205.66113-71.12012c28.74121-20.53906,56.86426-45.56738,83.58789-74.39355A740.33415,740.33415,0,0,0,959.61035,852.169a893.11187,893.11187,0,0,0,99.07227-196.09278C1075.25,609.6582,1095,541.084,1095,478,1095,426.51953,1084.68359,378.27344,1064.33691,334.60254Zm-48.03564,306.34668a842.22774,842.22774,0,0,1-45.274,103.73382q.994,3.29481,1.93653,6.61194l8.38366,29.70252-29.92828,7.53814q-2.78412.70129-5.5799,1.35926-11.35226,18.986-23.54144,37.11975a695.16866,695.16866,0,0,1-66.04931,83.87793c-24.65821,26.59765-50.48047,49.60156-76.75,68.374C721.24707,1020.89355,660.855,1042,600,1042s-121.24707-21.10645-179.49854-62.7334c-26.26953-18.77246-52.09179-41.77637-76.74951-68.37305a695.27555,695.27555,0,0,1-66.0498-83.87792q-12.19116-18.08478-23.54181-37.12079-2.795-.65964-5.57947-1.3592l-29.92834-7.53814,8.38366-29.70252q.937-3.31943,1.93653-6.61187a842.23214,842.23214,0,0,1-45.274-103.73389C161.96777,580.06543,150,522.19629,150,478c0-44.86621,8.8999-86.71777,26.45313-124.39355,18.22216-39.11036,45.59228-73.25684,81.35107-101.49219,37.80029-29.84668,84.89014-52.9834,139.96143-68.76758,49.17755-14.09576,104.95245-22.34357,166.16809-24.65283q7.0427-8.09345,14.54345-15.85285L600,120.67566,621.52283,142.841q7.51912,7.74363,14.54345,15.85285c61.21564,2.30926,116.99054,10.55707,166.1681,24.65283,55.07128,15.78418,102.16113,38.9209,139.96093,68.76758,35.75928,28.23535,63.1294,62.38183,81.35157,101.49219C1041.1001,391.28223,1050,433.13379,1050,478,1050,522.19629,1038.03223,580.06543,1016.30127,640.94922Z" transform="translate(-105 -113)"/>
  </g>
</svg>
