<svg id="Layer_1" data-name="Layer 1" xmlns="http://www.w3.org/2000/svg" viewBox="0 0 2168 570"><defs><style>.cls-1{fill:currentcolor;}</style></defs><path class="cls-1" d="M754.52,225q-8.5-3.87-20.38-3.86-15.64,0-25.83,8.61t-15.15,23.36a104.11,104.11,0,0,0-4.95,33.15h0v4.16a102,102,0,0,0,4.85,32.36q4.86,14.55,15,23.16t25.73,8.61q15.82,0,25.83-6.73a43.22,43.22,0,0,0,13.36-14.59V241.85a50.13,50.13,0,0,0-4-5.9A39.29,39.29,0,0,0,754.52,225Z"/><polygon class="cls-1" points="2016.24 397.49 2016.24 397.49 2016.24 397.49 2016.24 397.49"/><path class="cls-1" d="M523.53,225q-8.52-3.86-20.39-3.86-15.63,0-25.83,8.62t-15.14,23.35a103.61,103.61,0,0,0-4.95,33.16v4.15a101.87,101.87,0,0,0,4.85,32.37q4.85,14.55,14.94,23.16t25.73,8.61q15.84,0,25.84-6.73a43.32,43.32,0,0,0,13.36-14.59V241.85a49.39,49.39,0,0,0-4.06-5.9A39.36,39.36,0,0,0,523.53,225Z"/><path class="cls-1" d="M251.06,306a30.29,30.29,0,0,0-11.38,24.34,25,25,0,0,0,7.82,18.8q7.81,7.53,21.87,7.52,13.45,0,23.36-5.34a43.73,43.73,0,0,0,15.34-13.06,42.63,42.63,0,0,0,2.48-4V296.53H286.4Q262.45,296.53,251.06,306Z"/><polygon class="cls-1" points="1828.29 504.08 2016.24 397.49 1640.34 397.49 1828.29 504.08"/><polygon class="cls-1" points="1640.33 397.49 1640.34 397.49 1640.33 397.48 1640.33 397.49"/><path class="cls-1" d="M0,0V570H2168V0ZM144.67,394.9H90v-304h54.63Zm229,0H318.46a77.05,77.05,0,0,1-5.62-19.54,73.5,73.5,0,0,1-6,5.88,70.68,70.68,0,0,1-20.78,12.67q-12.18,4.95-28.21,4.95-20.58,0-37.11-8.22a65.49,65.49,0,0,1-26.13-22.76,58.82,58.82,0,0,1-9.6-33.16q0-33.84,25.24-52.25t73.53-18.41h26.73V251.19q0-15.44-8.12-24.64t-25.34-9.2a41.66,41.66,0,0,0-17.31,3.36,26.33,26.33,0,0,0-11.39,9.3,25.13,25.13,0,0,0-4,14.25H190a56.1,56.1,0,0,1,11.08-33.55q11.08-15.35,31.38-24.64t47.59-9.3q24.56,0,43.85,8.31A67.25,67.25,0,0,1,354.19,210q11,16.64,11,41.57v92q0,17,2.18,28.3a75.91,75.91,0,0,0,6.34,19.6ZM596.57,388q0,29.1-12.76,49.59a81.08,81.08,0,0,1-35.63,31.07q-22.87,10.59-52.95,10.59a120.88,120.88,0,0,1-27.71-3.56,116.56,116.56,0,0,1-28.91-11.09,73.5,73.5,0,0,1-23.15-19.4L440,412.12A73.8,73.8,0,0,0,464,430.33a66.53,66.53,0,0,0,28.7,6.33q23.36,0,36.32-12.47t13-35.82V376.14a78.55,78.55,0,0,1-9.31,8.86q-17.22,13.86-43.74,13.86-26.33,0-45.73-14.15T413.27,346q-10.49-24.56-10.49-55.63h0v-4.16q0-32.66,10.49-57.3t29.89-38.4q19.39-13.75,46.12-13.76,21.38,0,36,7.92A66.37,66.37,0,0,1,545,200.94l2.11-20.22h49.49Zm231,0q0,29.1-12.77,49.58a81.05,81.05,0,0,1-35.63,31.08q-22.86,10.59-52.95,10.59a121,121,0,0,1-27.71-3.56,116.64,116.64,0,0,1-28.9-11.09,73.54,73.54,0,0,1-23.16-19.4L671,412.12a73.69,73.69,0,0,0,24,18.21,66.49,66.49,0,0,0,28.7,6.33q23.36,0,36.32-12.47t13-35.82V376.14a77,77,0,0,1-9.3,8.87q-17.22,13.85-43.75,13.85-26.32,0-45.72-14.15T644.27,346q-10.49-24.54-10.49-55.62h0v-4.16q0-32.66,10.49-57.3t29.89-38.4q19.4-13.75,46.12-13.76,21.38,0,36,7.92A66.5,66.5,0,0,1,776,200.94l2.11-20.21h49.49Zm103.32,6.93H876.26V180.73h54.63Zm-4.95-249.61q-8.31,8.11-22.56,8.12-14.05,0-22.27-8.12a27.23,27.23,0,0,1-8.21-20.19q0-12.27,8.21-20.38t22.27-8.12q14.25,0,22.56,8.12t8.32,20.38A27.06,27.06,0,0,1,925.94,145.29Zm110,243.37q-8.42,8.41-22.86,8.41-14.06,0-22.47-8.41a28.33,28.33,0,0,1-8.41-20.88,28.66,28.66,0,0,1,8.41-21q8.41-8.52,22.47-8.51,14.44,0,22.86,8.51a28.66,28.66,0,0,1,8.41,21A28.33,28.33,0,0,1,1035.9,388.66Zm219.32-21.47q-11,14.85-31,23.26t-47.11,8.41q-29.89,0-50.38-10.69T1095.68,361q-10.59-16.51-10.59-34.14h52.06q.78,11.87,6.53,19a33.48,33.48,0,0,0,14.84,10.49,56,56,0,0,0,19.6,3.36q11.48,0,19.2-3.06t11.68-8.42a20,20,0,0,0,4-12.27,19.54,19.54,0,0,0-3.47-11.49q-3.46-4.94-13-9.2t-28.11-8A184.82,184.82,0,0,1,1129,294.44q-17.22-8-27-20.68t-9.8-31.08a57.51,57.51,0,0,1,10.1-32.66q10.1-15,29.1-24.15t45.33-9.11q27.51,0,47.4,8.91t30.49,24.45a61.33,61.33,0,0,1,10.58,35.33h-54.43a28.66,28.66,0,0,0-8.41-21Q1194,216,1176.54,216a41.84,41.84,0,0,0-17.32,3.26,25.18,25.18,0,0,0-10.89,8.71,21.69,21.69,0,0,0-3.66,12.37,17.49,17.49,0,0,0,3.86,11.19q3.87,4.84,12.77,8.51t24.54,6.83a217.15,217.15,0,0,1,41.77,12.37q18,7.62,28.3,20.69t10.29,33.65A55.12,55.12,0,0,1,1255.22,367.19Zm230.9,27.71h-54.63V258.72q0-14.25-4.06-22.47a23.71,23.71,0,0,0-12-11.68q-7.92-3.47-19.2-3.46-12.48,0-21.28,4.45a39.39,39.39,0,0,0-14.55,12.57c-.92,1.33-1.77,2.7-2.57,4.09V394.9h-54.63v-304h54.63V204a81.7,81.7,0,0,1,14.55-13.71q18.49-13.55,43.25-13.55,21.18,0,37,8.11T1477.31,211q8.81,18,8.81,48.1Zm341.61,140.35c-138.07,0-250-111.92-250-250s111.92-250,250-250,250,111.92,250,250S1965.8,535.25,1827.73,535.25Z"/><polygon class="cls-1" points="1640.33 173.07 1640.33 397.48 1828.29 66.47 2016.24 397.49 2016.24 173.07 1828.29 66.47 1640.33 173.07"/></svg>