<svg id="Layer_1" data-name="Layer 1" xmlns="http://www.w3.org/2000/svg" viewBox="0 0 2168 570"><defs><style>.cls-1,.cls-2{fill-rule:evenodd;}.cls-2,.cls-3{fill:currentcolor;}.cls-4{fill:none;}</style></defs><rect width="2168" height="570"/><path class="cls-1" d="M1828.29,511.22,1634.63,401.14V169.41L1828.29,59.33l193.65,110.08V401.14Z"/><path id="Ellipse_2_copy" data-name="Ellipse 2 copy" class="cls-2" d="M1827.73,35.28c138.07,0,250,111.92,250,250s-111.92,250-250,250-250-111.92-250-250S1689.67,35.28,1827.73,35.28Zm.56,468.8-188-106.6V173.07l188-106.6,188,106.6V397.49Zm-188-106.6,188-331,188,331H1640.33Z"/><path class="cls-3" d="M903.38,96.6q-14.05,0-22.27,8.12T872.9,125.1a27.23,27.23,0,0,0,8.21,20.19q8.21,8.13,22.27,8.12,14.25,0,22.56-8.12a27.06,27.06,0,0,0,8.32-20.19q0-12.27-8.32-20.38T903.38,96.6Z"/><polygon class="cls-3" points="876.26 180.73 876.26 394.9 930.89 394.9 930.89 180.72 930.89 180.73 876.26 180.73"/><path class="cls-3" d="M1477.31,211q-8.8-18-24.64-26.13t-37-8.11q-24.75,0-43.25,13.55A81.7,81.7,0,0,0,1357.85,204V90.86h-54.63v304h54.63V242.22c.8-1.39,1.65-2.76,2.57-4.09A39.39,39.39,0,0,1,1375,225.56q8.8-4.45,21.28-4.45,11.28,0,19.2,3.46a23.71,23.71,0,0,1,12,11.68q4,8.22,4.06,22.47V394.9h54.63V259.11Q1486.12,229,1477.31,211Z"/><path class="cls-3" d="M1227.61,279.2a217.15,217.15,0,0,0-41.77-12.37q-15.64-3.16-24.54-6.83t-12.77-8.51a17.49,17.49,0,0,1-3.86-11.19,21.69,21.69,0,0,1,3.66-12.37,25.18,25.18,0,0,1,10.89-8.71,41.84,41.84,0,0,1,17.32-3.26q17.42,0,25.83,8.51a28.66,28.66,0,0,1,8.41,21h54.43a61.33,61.33,0,0,0-10.58-35.33q-10.61-15.54-30.49-24.45t-47.4-8.91q-26.34,0-45.33,9.11T1102.31,210a57.51,57.51,0,0,0-10.1,32.66q0,18.4,9.8,31.08t27,20.68a184.82,184.82,0,0,0,39.39,12.77q18.6,3.77,28.11,8t13,9.2a19.54,19.54,0,0,1,3.47,11.49,20,20,0,0,1-4,12.27q-4,5.35-11.68,8.42t-19.2,3.06a56,56,0,0,1-19.6-3.36,33.48,33.48,0,0,1-14.84-10.49q-5.75-7.12-6.53-19h-52.06q0,17.61,10.59,34.14t31.07,27.22q20.49,10.69,50.38,10.69,27.12,0,47.11-8.41t31-23.26a55.12,55.12,0,0,0,11-33.65q0-20.58-10.29-33.65T1227.61,279.2Z"/><path class="cls-3" d="M1013,338.29q-14.06,0-22.47,8.51a28.66,28.66,0,0,0-8.41,21,28.33,28.33,0,0,0,8.41,20.88q8.41,8.41,22.47,8.41,14.44,0,22.86-8.41a28.33,28.33,0,0,0,8.41-20.88,28.66,28.66,0,0,0-8.41-21Q1027.48,338.29,1013,338.29Z"/><path class="cls-4" d="M251.06,306a30.29,30.29,0,0,0-11.38,24.34,25,25,0,0,0,7.82,18.8q7.81,7.53,21.87,7.52,13.45,0,23.36-5.34a43.73,43.73,0,0,0,15.34-13.06,42.63,42.63,0,0,0,2.48-4V296.53H286.4Q262.45,296.53,251.06,306Z"/><path class="cls-3" d="M367.35,371.93q-2.18-11.28-2.18-28.3v-92q0-24.94-11-41.57a67.25,67.25,0,0,0-30.29-24.94q-19.31-8.31-43.85-8.31-27.3,0-47.59,9.3t-31.38,24.64A56.1,56.1,0,0,0,190,244.26h54.43a25.13,25.13,0,0,1,4-14.25,26.33,26.33,0,0,1,11.39-9.3,41.66,41.66,0,0,1,17.31-3.36q17.22,0,25.34,9.2t8.12,24.64v12.87H283.82q-48.3,0-73.53,18.41t-25.24,52.25a58.82,58.82,0,0,0,9.6,33.16,65.49,65.49,0,0,0,26.13,22.76q16.51,8.22,37.11,8.22,16,0,28.21-4.95a70.68,70.68,0,0,0,20.78-12.67,73.5,73.5,0,0,0,6-5.88,77.05,77.05,0,0,0,5.62,19.54h55.23v-3.37A75.91,75.91,0,0,1,367.35,371.93Zm-56.8-37.62a42.63,42.63,0,0,1-2.48,4,43.73,43.73,0,0,1-15.34,13.06q-9.9,5.34-23.36,5.34-14.06,0-21.87-7.52a25,25,0,0,1-7.82-18.8A30.29,30.29,0,0,1,251.06,306q11.38-9.51,35.34-9.5h24.15Z"/><path class="cls-4" d="M523.53,225q-8.52-3.86-20.39-3.86-15.63,0-25.83,8.62t-15.14,23.35a103.61,103.61,0,0,0-4.95,33.16v4.15a101.87,101.87,0,0,0,4.85,32.37q4.85,14.55,14.94,23.16t25.73,8.61q15.84,0,25.84-6.73a43.32,43.32,0,0,0,13.36-14.59V241.85a49.39,49.39,0,0,0-4.06-5.9A39.36,39.36,0,0,0,523.53,225Z"/><path class="cls-3" d="M547.08,180.72,545,200.94a66.37,66.37,0,0,0-19.66-16.25q-14.65-7.92-36-7.92-26.71,0-46.12,13.76t-29.89,38.4q-10.49,24.65-10.49,57.3v4.16h0q0,31.08,10.49,55.63t29.89,38.7q19.41,14.15,45.73,14.15,26.52,0,43.74-13.86a78.55,78.55,0,0,0,9.31-8.86v12.23q0,23.36-13,35.82t-36.32,12.47a66.53,66.53,0,0,1-28.7-6.33A73.8,73.8,0,0,1,440,412.12l-24.54,33.05a73.5,73.5,0,0,0,23.15,19.4,116.56,116.56,0,0,0,28.91,11.09,120.88,120.88,0,0,0,27.71,3.56q30.07,0,52.95-10.59a81.08,81.08,0,0,0,35.63-31.07q12.77-20.49,12.76-49.59V180.72ZM541.94,333.2a43.32,43.32,0,0,1-13.36,14.59q-10,6.72-25.84,6.73-15.63,0-25.73-8.61t-14.94-23.16a101.87,101.87,0,0,1-4.85-32.37v-4.15a103.61,103.61,0,0,1,4.95-33.16q4.93-14.74,15.14-23.35t25.83-8.62q11.88,0,20.39,3.86a39.36,39.36,0,0,1,14.35,11,49.39,49.39,0,0,1,4.06,5.9Z"/><path class="cls-4" d="M754.52,225q-8.5-3.87-20.38-3.86-15.64,0-25.83,8.61t-15.15,23.36a104.11,104.11,0,0,0-4.95,33.15h0v4.16a102,102,0,0,0,4.85,32.36q4.86,14.55,15,23.16t25.73,8.61q15.82,0,25.83-6.73a43.22,43.22,0,0,0,13.36-14.59V241.85a50.13,50.13,0,0,0-4-5.9A39.29,39.29,0,0,0,754.52,225Z"/><path class="cls-3" d="M778.08,180.72h0L776,200.94a66.5,66.5,0,0,0-19.66-16.25q-14.65-7.92-36-7.92-26.73,0-46.12,13.76t-29.89,38.4q-10.5,24.65-10.49,57.3v4.16h0q0,31.08,10.49,55.62t29.89,38.7q19.4,14.15,45.72,14.15,26.54,0,43.75-13.85a77,77,0,0,0,9.3-8.87v12.23q0,23.36-13,35.82t-36.32,12.47a66.49,66.49,0,0,1-28.7-6.33,73.69,73.69,0,0,1-24-18.21l-24.55,33.05a73.54,73.54,0,0,0,23.16,19.4,116.64,116.64,0,0,0,28.9,11.09,121,121,0,0,0,27.71,3.56q30.09,0,52.95-10.59a81.05,81.05,0,0,0,35.63-31.08q12.76-20.48,12.77-49.58V180.72ZM772.93,333.2a43.22,43.22,0,0,1-13.36,14.59q-10,6.73-25.83,6.73-15.65,0-25.73-8.61t-15-23.16a102,102,0,0,1-4.85-32.36v-4.16h0a104.11,104.11,0,0,1,4.95-33.15q5-14.75,15.15-23.36t25.83-8.61q11.86,0,20.38,3.86a39.29,39.29,0,0,1,14.36,11,50.13,50.13,0,0,1,4,5.9Z"/><rect class="cls-3" x="90.04" y="90.86" width="54.63" height="304.04"/></svg>