<svg id="Layer_1" data-name="Layer 1" xmlns="http://www.w3.org/2000/svg" width="1763" height="150" viewBox="0 0 1763 150">
  <defs>
    <style>
      .cls-1 {
        fill: #fff;
      }

      .cls-2 {
        fill: #fbb03b;
      }
    </style>
  </defs>
  <path class="cls-1" d="M321.76316,95.36842h5a25,25,0,0,0,25-25v-45h0a25,25,0,0,0-25-25h-125l-30,45v105h50v-105h80v25h-50v25l55,55h70Z" transform="translate(0.23684 -0.36842)"/>
  <polygon class="cls-2" points="902 108 930 150 880 150 852 108 902 108"/>
  <polygon class="cls-1" points="120 150 70 150 70 45 0 45 0 0 70 0 120 0 190 0 160 45 120 45 120 150"/>
  <polygon class="cls-1" points="1526 150 1476 150 1476 45 1406 45 1406 0 1476 0 1526 0 1596 0 1566 45 1526 45 1526 150"/>
  <path class="cls-1" d="M851.76316.36842H746.71967a29.95651,29.95651,0,0,0-29.95651,29.95651v90.07613a29.96735,29.96735,0,0,0,29.96736,29.96736H871.76316l-29-42h-76v-63h85v53h50V30.276A29.90758,29.90758,0,0,0,871.85557.36842H851.76316Z" transform="translate(0.23684 -0.36842)"/>
  <rect class="cls-1" x="1112" width="50" height="150"/>
  <rect class="cls-1" x="1344" width="50" height="150"/>
  <polygon class="cls-1" points="1232 108 1232 0 1182 0 1182 100 1182 150 1232 150 1332 150 1332 108 1232 108"/>
  <path class="cls-1" d="M1047.76316.36842v108h-70v-108h-50v120a30,30,0,0,0,30,30h110.06528a29.93475,29.93475,0,0,0,29.93475-29.93475V.36842Z" transform="translate(0.23684 -0.36842)"/>
  <polygon class="cls-1" points="569 150 469 0 453 0 434 0 358 114 394 150 394 150 451.5 63.75 509 150 569 150"/>
  <polygon class="cls-1" points="651 0 651 60 611 0 561 0 561 120 581 150 611 150 611 90 651 150 701 150 701 0 651 0"/>
  <polygon class="cls-1" points="1608 0 1578 45 1623 90 1623 150 1673 150 1673 90 1763 0 1688 0 1648 40 1608 0"/>
</svg>
