<svg xmlns="http://www.w3.org/2000/svg" width="2365" height="283" viewBox="0 0 2365 283">
  <defs>
    <style>
      .cls-1 {
        fill: #fff;
        fill-rule: evenodd;
      }
    </style>
  </defs>
  <path class="cls-1" d="M143,236.5h60V96.5h60l40-50H63v50h80v140Zm140,0V96.5l40-50H473l30,30v60l-20,20H453l80,80H443l-70-70v-40h70v-30H343v140H283Zm270,0,80-110,80,110h70L653,46.5H613l-110,140Zm280,0v-90l60,90h60V46.5H893v90l-60-90H773v150l27.578,40H833Zm170,0-20-10-10-20V76.5l10-20,20-10h170l20,10,10,20v90h-60v-70H1033v90h90l40,50H1003Zm170,0-30-40v-10h60l40,50h-70Zm100,0-30-20-10-20V46.5h50v140h110V46.5h50v150l-10,20-30,20H1273Zm200,0V46.5h60v190h-60Zm80,0V46.5h60v140h130v50H1553Zm210,0V46.5h60v190h-60Zm80-190v50h80v140h60V96.5h60l40-50H1843Zm220,50,40-50,60,60,60-60h80l-120,120v70h-50v-70Z"/>
</svg>
