<svg id="Layer_1" data-name="Layer 1" xmlns="http://www.w3.org/2000/svg" width="794" height="682" viewBox="0 0 794 682">
  <defs>
    <style>
      .cls-1 {
        fill: #fff;
      }
    </style>
  </defs>
  <path class="cls-1" d="M252.794,384.29144,243.5,316.5l18.94745-21.57385C230.17212,262.60889,183.90271,216.22357,179.25,211.25,135.75,164.75,27,0,27,0S85.57733,182.37628,91,200c5.65112,18.36615,9.82513,28.51758,37.19678,58.30322,11.377,12.38025,62.5545,63.9455,62.5545,63.9455Z"/>
  <path class="cls-1" d="M372,426c-5-22-29.75128-51.24878-29.75128-51.24878l-48.5-48.5s-4.30811-4.30829-11.2453-11.24982L279.5,320.5l4.69244,95.18988,22.19086,22.19086S328.67,462.43256,336,473c8.22119,11.85217,41,69,41,69V474C377,462.18365,373.44653,432.36462,372,426Z"/>
  <path class="cls-1" d="M222.46173,493.95917,260.5,440.5l-1.19562-8.72113C227.25043,399.67963,183.75348,356.064,179.25,351.25,135.75,304.75,27,140,27,140S85.57733,322.37628,91,340c5.65112,18.36615,9.82513,28.51758,37.19678,58.30322,11.377,12.38025,62.5545,63.9455,62.5545,63.9455Z"/>
  <path class="cls-1" d="M238.22272,509.72015l68.16058,68.16059S328.67,602.43256,336,613c8.22119,11.85217,41,69,41,69V614c0-11.81635-3.55347-41.63538-5-48-5-22-29.75128-51.24878-29.75128-51.24878l-48.5-48.5s-2.76862-2.76868-7.43018-7.43256Z"/>
  <path class="cls-1" d="M507.68146,458.81866c-4.66156,4.66388-7.43018,7.43256-7.43018,7.43256l-48.5,48.5S427,544,422,566c-1.44653,6.36462-5,36.18365-5,48v68s32.77881-57.14783,41-69c7.33-10.56744,29.6167-35.11926,29.6167-35.11926l68.16058-68.16059Z"/>
  <path class="cls-1" d="M614.75,351.25c-4.50348,4.814-48.00043,48.42963-80.05438,80.52887L533.5,440.5l38.03827,53.45917,31.71045-31.71045s51.17755-51.56525,62.5545-63.9455C693.17487,368.51758,697.34888,358.36615,703,340c5.42267-17.62372,64-200,64-200S658.25,304.75,614.75,351.25Z"/>
  <path class="cls-1" d="M514.5,320.5l-3.00342-5.4986c-6.93719,6.94153-11.2453,11.24982-11.2453,11.24982l-48.5,48.5S427,404,422,426c-1.44653,6.36462-5,36.18365-5,48v68s32.77881-57.14783,41-69c7.33-10.56744,29.6167-35.11926,29.6167-35.11926l22.19086-22.19086Z"/>
  <path class="cls-1" d="M614.75,211.25c-4.65271,4.97357-50.92212,51.35889-83.19745,83.67615L550.5,316.5l-9.294,67.79144,62.04273-62.04272s51.17755-51.56525,62.5545-63.9455C693.17487,228.51758,697.34888,218.36615,703,200c5.42267-17.62372,64-200,64-200S658.25,164.75,614.75,211.25Z"/>
  <path class="cls-1" d="M617.44409,476.3374l-.02655.02674-.02673.02667-60.53546,60.53552-26.92884,26.92889L502.10474,591.677c-6.21289,6.85938-22.37128,25.08124-27.67109,32.72193-2.176,3.137-6.51861,10.22747-11.64794,18.822A248.59164,248.59164,0,0,0,640.095,453.4339C628.25934,465.43817,618.35889,475.41565,617.44409,476.3374Z"/>
  <path class="cls-1" d="M319.56647,624.39905c-5.29993-7.64081-21.45832-25.86267-27.67121-32.722l-27.82177-27.82177-26.92884-26.9289-60.53546-60.53552-.02673-.02667-.02655-.02674c-.9148-.92175-10.81525-10.89929-22.651-22.90356a248.59186,248.59186,0,0,0,177.30938,189.787C326.085,634.6264,321.74237,627.536,319.56647,624.39905Z"/>
  <path class="cls-1" d="M652.3371,440.99164C637.138,546.38312,558.014,631.38269,455.65265,655.26984c-4.62927,7.871-9.3811,16.03412-13.46008,23.07806A278.121,278.121,0,0,0,674.65045,418.06433C668.864,424.10516,660.69678,432.47479,652.3371,440.99164Z"/>
  <path class="cls-1" d="M338.34735,655.26984C235.986,631.38269,156.862,546.38306,141.6629,440.99158c-8.35968-8.51685-16.527-16.88654-22.31335-22.92731A278.12215,278.12215,0,0,0,351.80737,678.34784C347.72839,671.304,342.97662,663.14087,338.34735,655.26984Z"/>
  <path class="cls-1" d="M251.43323,255.58209c80.78613-79.44281,210.34747-79.44278,291.13354.00006,10.849-10.87512,20.32953-20.38818,28.30353-28.40057-96.4859-94.90875-251.25458-94.90878-347.74054-.00006C231.10382,235.194,240.58429,244.707,251.43323,255.58209Z"/>
  <path class="cls-1" d="M216.16235,220.17688c100.2743-98.90253,261.40107-98.9025,361.67536.00006,5.80133-5.83581,10.5476-10.62042,14.16949-14.28387C483.82361,99.36887,310.17651,99.369,201.993,205.89331,205.61511,209.55688,210.36121,214.34131,216.16235,220.17688Z"/>
  <path class="cls-1" d="M186.28223,614.71777A296.0503,296.0503,0,0,1,99,404q0-11.94342.93909-23.72711L97,378,0,293,84,421,17,404,122,542l-48-4L214.33331,641.57971l2.77246.03528A302.43832,302.43832,0,0,1,186.28223,614.71777Z"/>
  <path class="cls-1" d="M710,421l84-128-97,85-2.93909,2.27289Q694.98286,392.05261,695,404a296.04812,296.04812,0,0,1-87.28223,210.71777A302.44433,302.44433,0,0,1,576.894,641.615l2.77265-.03528L720,538l-48,4L777,404Z"/>
  <g>
    <polygon class="cls-1" points="462.75 325.75 498.073 290.427 470.577 240.088 401.783 264.783 462.75 325.75"/>
    <polygon class="cls-1" points="392.217 264.783 323.423 240.088 295.927 290.427 331.25 325.75 392.217 264.783"/>
    <polygon class="cls-1" points="335.5 330 397 391.5 458.5 330 335.5 330"/>
  </g>
  <path class="cls-1" d="M280.99884,129.42645A295.19,295.19,0,0,1,350.998,109.52771L397,76l46.00208,33.52771a296.90837,296.90837,0,0,1,162.73907,81.824c10.436-12.0033,23.72705-29.19922,38.02106-48.58954L542,41v86L397,1,252,127V41L150.23773,142.76227c14.29407,19.3905,27.58508,36.58661,38.02088,48.58972A296.87236,296.87236,0,0,1,280.99884,129.42645Z"/>
</svg>
