<svg id="Layer_2" data-name="Layer 2" xmlns="http://www.w3.org/2000/svg" width="794" height="682" viewBox="0 0 794 682">
  <defs>
    <style>
      .cls-1 {
        fill: #fff;
      }
    </style>
  </defs>
  <polygon class="cls-1" points="470.969 240.088 397.391 266.5 323.814 240.088 296.318 290.427 397.391 391.5 498.465 290.427 470.969 240.088"/>
  <path class="cls-1" d="M253.1853,384.29144,243.8913,316.5l18.94745-21.57385C230.56342,262.60889,184.294,216.22357,179.6413,211.25,136.1413,164.75,27.3913,0,27.3913,0s58.57733,182.37628,64,200c5.65112,18.36615,9.82513,28.51758,37.19677,58.30322,11.377,12.38025,62.55451,63.9455,62.55451,63.9455Z"/>
  <path class="cls-1" d="M372.3913,426c-5-22-29.75129-51.24878-29.75129-51.24878l-48.5-48.5s-4.3081-4.30829-11.2453-11.24982L279.8913,320.5l4.69244,95.18988,22.19086,22.19086S329.06134,462.43256,336.3913,473c8.22119,11.85217,41,69,41,69V474C377.3913,462.18365,373.83783,432.36462,372.3913,426Z"/>
  <path class="cls-1" d="M222.853,493.95917,260.8913,440.5l-1.19562-8.72113c-32.054-32.09924-75.5509-75.71484-80.05438-80.52887-43.5-46.5-152.25-211.25-152.25-211.25s58.57733,182.37628,64,200c5.65112,18.36615,9.82513,28.51758,37.19677,58.30322,11.377,12.38025,62.55451,63.9455,62.55451,63.9455Z"/>
  <path class="cls-1" d="M238.614,509.72015l68.1606,68.16059S329.06134,602.43256,336.3913,613c8.22119,11.85217,41,69,41,69V614c0-11.81635-3.55347-41.63538-5-48-5-22-29.75129-51.24878-29.75129-51.24878l-48.5-48.5s-2.76861-2.76868-7.43017-7.43256Z"/>
  <path class="cls-1" d="M508.07275,458.81866c-4.66156,4.66388-7.43017,7.43256-7.43017,7.43256l-48.5,48.5S427.3913,544,422.3913,566c-1.44654,6.36462-5,36.18365-5,48v68s32.7788-57.14783,41-69c7.33-10.56744,29.6167-35.11926,29.6167-35.11926l68.16058-68.16059Z"/>
  <path class="cls-1" d="M615.1413,351.25c-4.50348,4.814-48.00043,48.42963-80.05439,80.52887L533.8913,440.5l38.03827,53.45917L603.64,462.24872s51.17756-51.56525,62.55451-63.9455C693.56616,368.51758,697.74017,358.36615,703.3913,340c5.42266-17.62372,64-200,64-200S658.6413,304.75,615.1413,351.25Z"/>
  <path class="cls-1" d="M514.8913,320.5l-3.00342-5.4986c-6.9372,6.94153-11.2453,11.24982-11.2453,11.24982l-48.5,48.5S427.3913,404,422.3913,426c-1.44654,6.36462-5,36.18365-5,48v68s32.7788-57.14783,41-69c7.33-10.56744,29.6167-35.11926,29.6167-35.11926l22.19085-22.19086Z"/>
  <path class="cls-1" d="M615.1413,211.25c-4.65271,4.97357-50.92212,51.35889-83.19745,83.67615L550.8913,316.5l-9.294,67.79144L603.64,322.24872s51.17756-51.56525,62.55451-63.9455C693.56616,228.51758,697.74017,218.36615,703.3913,200c5.42266-17.62372,64-200,64-200S658.6413,164.75,615.1413,211.25Z"/>
  <path class="cls-1" d="M617.83539,476.3374l-.02655.02674-.02674.02667-60.53546,60.53552-26.92883,26.92889L502.496,591.677c-6.21289,6.85938-22.37127,25.08124-27.67108,32.72193-2.176,3.137-6.51862,10.22747-11.648,18.822a248.59166,248.59166,0,0,0,177.3093-189.787C628.65063,465.43817,618.75018,475.41565,617.83539,476.3374Z"/>
  <path class="cls-1" d="M319.95776,624.39905c-5.29992-7.64081-21.45831-25.86267-27.6712-32.722l-27.82178-27.82177-26.92877-26.929-60.53552-60.53552-.02674-.02668-.02655-.02673c-.91479-.92175-10.81524-10.89929-22.651-22.90356A248.5918,248.5918,0,0,0,331.60559,643.22089C326.47626,634.6264,322.13367,627.536,319.95776,624.39905Z"/>
  <path class="cls-1" d="M652.72839,440.99164C637.5293,546.38312,558.40527,631.38269,456.044,655.26984c-4.62928,7.871-9.38111,16.03412-13.46009,23.07806A278.121,278.121,0,0,0,675.04175,418.06433C669.25531,424.10516,661.08807,432.47479,652.72839,440.99164Z"/>
  <path class="cls-1" d="M338.73865,655.26984C236.37732,631.38269,157.2533,546.38306,142.0542,440.99158c-8.35968-8.51685-16.527-16.88654-22.31336-22.92731A278.12219,278.12219,0,0,0,352.19867,678.34784C348.11969,671.304,343.36792,663.14087,338.73865,655.26984Z"/>
  <path class="cls-1" d="M251.82452,255.58209c80.78614-79.44281,210.34748-79.44278,291.13355.00006,10.849-10.87512,20.32953-20.38818,28.30353-28.40057-96.4859-94.90875-251.25458-94.90878-347.74054-.00006C231.49512,235.194,240.97559,244.707,251.82452,255.58209Z"/>
  <path class="cls-1" d="M216.55365,220.17688c100.27429-98.90253,261.40106-98.9025,361.67535.00006,5.80133-5.83581,10.54761-10.62042,14.1695-14.28387C484.2149,99.36887,310.56781,99.369,202.38434,205.89331,206.00641,209.55688,210.7525,214.34131,216.55365,220.17688Z"/>
  <path class="cls-1" d="M186.28223,614.71777A296.05026,296.05026,0,0,1,99,404q0-11.94342.93909-23.72711L97,378,0,293,84,421,17,404,122,542l-48-4L214.33331,641.57971l2.77246.03528A302.43832,302.43832,0,0,1,186.28223,614.71777Z"/>
  <path class="cls-1" d="M710,421l84-128-97,85-2.93909,2.27289Q694.98286,392.05266,695,404a296.04812,296.04812,0,0,1-87.28223,210.71777A302.44433,302.44433,0,0,1,576.894,641.615l2.77265-.03528L720,538l-48,4L777,404Z"/>
</svg>
