<svg id="Layer_4" data-name="Layer 4" xmlns="http://www.w3.org/2000/svg" width="740" height="682" viewBox="0 0 740 682">
  <defs>
    <style>
      .cls-1 {
        fill: #fff;
      }
    </style>
  </defs>
  <path class="cls-1" d="M654.75126,773.75126l48.5-48.5S810.53566,617.96188,817.75,610.25C861.25,563.75,970,399,970,399s-58.57732,182.37631-64,200c-5.65113,18.36616-9.82514,28.51762-37.19679,58.30321-11.37694,12.38028-62.55447,63.94553-62.55447,63.94553l-115.632,115.632S668.33,861.43257,661,872c-8.22116,11.85221-41,69-41,69V873c0-11.8163,3.55349-41.63535,5-48C630,803,654.75126,773.75126,654.75126,773.75126Z" transform="translate(-230 -259)"/>
  <path class="cls-1" d="M654.75126,633.75126l48.5-48.5S810.53566,477.96188,817.75,470.25C861.25,423.75,970,259,970,259s-58.57732,182.37631-64,200c-5.65113,18.36616-9.82514,28.51762-37.19679,58.30321-11.37694,12.38028-62.55447,63.94553-62.55447,63.94553l-115.632,115.632S668.33,721.43257,661,732c-8.22116,11.85221-41,69-41,69V733c0-11.8163,3.55349-41.63535,5-48C630,663,654.75126,633.75126,654.75126,633.75126Z" transform="translate(-230 -259)"/>
  <path class="cls-1" d="M545.24874,773.75126l-48.5-48.5S389.46434,617.96188,382.25,610.25C338.75,563.75,230,399,230,399s58.57732,182.37631,64,200c5.65113,18.36616,9.82514,28.51762,37.19679,58.30321,11.37694,12.38028,62.55447,63.94553,62.55447,63.94553l115.632,115.632S531.67,861.43257,539,872c8.22116,11.85221,41,69,41,69V873c0-11.8163-3.55349-41.63535-5-48C570,803,545.24874,773.75126,545.24874,773.75126Z" transform="translate(-230 -259)"/>
  <path class="cls-1" d="M545.24874,633.75126l-48.5-48.5S389.46434,477.96188,382.25,470.25C338.75,423.75,230,259,230,259s58.57732,182.37631,64,200c5.65113,18.36616,9.82514,28.51762,37.19679,58.30321,11.37694,12.38028,62.55447,63.94553,62.55447,63.94553l115.632,115.632S531.67,721.43257,539,732c8.22116,11.85221,41,69,41,69V733c0-11.8163-3.55349-41.63535-5-48C570,663,545.24874,633.75126,545.24874,633.75126Z" transform="translate(-230 -259)"/>
</svg>
