<svg id="Layer_3" data-name="Layer 3" xmlns="http://www.w3.org/2000/svg" width="740" height="682" viewBox="0 0 740 682">
  <defs>
    <style>
      .cls-1 {
        fill: #fff;
      }
    </style>
  </defs>
  <polygon class="cls-1" points="443.577 240.088 370 266.5 296.423 240.088 268.927 290.427 370 391.5 471.073 290.427 443.577 240.088"/>
  <path class="cls-1" d="M455.794,643.29144,446.5,575.5l18.94745-21.57385C433.17212,521.60889,386.90271,475.22357,382.25,470.25,338.75,423.75,230,259,230,259s58.57733,182.37628,64,200c5.65112,18.36615,9.82513,28.51758,37.19678,58.30322,11.377,12.38025,62.5545,63.9455,62.5545,63.9455Z" transform="translate(-230 -259)"/>
  <path class="cls-1" d="M575,685c-5-22-29.75128-51.24878-29.75128-51.24878l-48.5-48.5s-4.30811-4.30829-11.2453-11.24982L482.5,579.5l4.69244,95.18988,22.19086,22.19086S531.67,721.43256,539,732c8.22119,11.85217,41,69,41,69V733C580,721.18365,576.44653,691.36462,575,685Z" transform="translate(-230 -259)"/>
  <path class="cls-1" d="M425.46173,752.95917,463.5,699.5l-1.19562-8.72113C430.25043,658.67963,386.75348,615.064,382.25,610.25,338.75,563.75,230,399,230,399s58.57733,182.37628,64,200c5.65112,18.36615,9.82513,28.51758,37.19678,58.30322,11.377,12.38025,62.5545,63.9455,62.5545,63.9455Z" transform="translate(-230 -259)"/>
  <path class="cls-1" d="M489.31854,717.81866c4.66156,4.66388,7.43018,7.43256,7.43018,7.43256l48.5,48.5S570,803,575,825c1.44653,6.36462,5,36.18365,5,48v68s-32.77881-57.14783-41-69c-7.33-10.56744-29.6167-35.11926-29.6167-35.11926l-68.16058-68.16059Z" transform="translate(-230 -259)"/>
  <path class="cls-1" d="M710.68146,717.81866c-4.66156,4.66388-7.43018,7.43256-7.43018,7.43256l-48.5,48.5S630,803,625,825c-1.44653,6.36462-5,36.18365-5,48v68s32.77881-57.14783,41-69c7.33-10.56744,29.6167-35.11926,29.6167-35.11926l68.16058-68.16059Z" transform="translate(-230 -259)"/>
  <path class="cls-1" d="M817.75,610.25c-4.50348,4.814-48.00043,48.42963-80.05438,80.52887L736.5,699.5l38.03827,53.45917,31.71045-31.71045s51.17755-51.56525,62.5545-63.9455C896.17487,627.51758,900.34888,617.36615,906,599c5.42267-17.62372,64-200,64-200S861.25,563.75,817.75,610.25Z" transform="translate(-230 -259)"/>
  <path class="cls-1" d="M717.5,579.5l-3.00342-5.4986c-6.93719,6.94153-11.2453,11.24982-11.2453,11.24982l-48.5,48.5S630,663,625,685c-1.44653,6.36462-5,36.18365-5,48v68s32.77881-57.14783,41-69c7.33-10.56744,29.6167-35.11926,29.6167-35.11926l22.19086-22.19086Z" transform="translate(-230 -259)"/>
  <path class="cls-1" d="M817.75,470.25c-4.65271,4.97357-50.92212,51.35889-83.19745,83.67615L753.5,575.5l-9.294,67.79144,62.04273-62.04272s51.17755-51.56525,62.5545-63.9455C896.17487,487.51758,900.34888,477.36615,906,459c5.42267-17.62372,64-200,64-200S861.25,423.75,817.75,470.25Z" transform="translate(-230 -259)"/>
</svg>
